# xmcd
#
# Track frame offsets: 
#        150
#        20912
#        47208
#        74528
#        89764
#        116108
#        138683
#        159542
#        179557
#        214142
#
# Disc length: 3099 seconds
#
# Revision: 3
# Processed by: cddbd v1.5.2PL0 Copyright (c) Steve Scherf et al.
# Submitted via: ExactAudioCopy v0.99pb5
#
DISCID=a40c190a
DTITLE=Pat Travers - Lookin' Up
DYEAR=1900
DGENRE=Blues
TTITLE0=Ice Queen
TTITLE1=Lookin'Up
TTITLE2=Hypnotized
TTITLE3=Dusty Blues
TTITLE4=Too Much (Is Never Enough)
TTITLE5=Bad Little Girl
TTITLE6=Right To Complain
TTITLE7=A Good Fool Is Hard To Find
TTITLE8=Bad Feelin's Again
TTITLE9=Suburban Blues
EXTD=
EXTT0=
EXTT1=
EXTT2=
EXTT3=
EXTT4=
EXTT5=
EXTT6=
EXTT7=
EXTT8=
EXTT9=
PLAYORDER=
